<svg width="140" height="56" viewBox="0 0 140 56" fill="none" xmlns="http://www.w3.org/2000/svg">
  <!-- Speed lines (blue) -->
  <line x1="2" y1="18" x2="32" y2="18" stroke="#3B82F6" stroke-width="3" stroke-linecap="round"/>
  <line x1="2" y1="26" x2="38" y2="26" stroke="#3B82F6" stroke-width="3" stroke-linecap="round"/>
  <line x1="2" y1="34" x2="44" y2="34" stroke="#3B82F6" stroke-width="3" stroke-linecap="round"/>
  
  <!-- Truck cabin (dark blue) -->
  <path d="M 58 20 L 58 40 L 78 40 L 78 20 Z" fill="#1E3A5F" rx="2"/>
  
  <!-- Windshield (light blue) -->
  <rect x="60" y="22" width="14" height="10" rx="1" fill="#60A5FA" opacity="0.6"/>
  
  <!-- Cargo container (orange) -->
  <path d="M 78 18 L 78 40 L 118 40 L 118 24 L 102 18 Z" fill="#FF6B2B"/>
  
  <!-- Container details (darker orange lines) -->
  <line x1="88" y1="20" x2="88" y2="38" stroke="#E55A1A" stroke-width="2"/>
  <line x1="98" y1="22" x2="98" y2="38" stroke="#E55A1A" stroke-width="2"/>
  <line x1="108" y1="24" x2="108" y2="38" stroke="#E55A1A" stroke-width="2"/>
  
  <!-- Wheels -->
  <circle cx="68" cy="42" r="5" fill="#1E3A5F"/>
  <circle cx="68" cy="42" r="3" fill="#6B7280"/>
  <circle cx="68" cy="42" r="1.5" fill="#FFFFFF"/>
  
  <circle cx="98" cy="42" r="5" fill="#1E3A5F"/>
  <circle cx="98" cy="42" r="3" fill="#6B7280"/>
  <circle cx="98" cy="42" r="1.5" fill="#FFFFFF"/>
  
  <!-- Ground line -->
  <line x1="50" y1="48" x2="125" y2="48" stroke="#9CA3AF" stroke-width="1.5" stroke-linecap="round"/>
</svg>
